<svg id="visual" viewBox="0 0 1280 720" width="1280" height="720" xmlns="http://www.w3.org/2000/svg" xmlns:xlink="http://www.w3.org/1999/xlink" version="1.1"><rect x="0" y="0" width="1280" height="720" fill="#32CD32"></rect><defs><linearGradient id="grad1_0" x1="43.8%" y1="100%" x2="100%" y2="0%"><stop offset="14.444444444444446%" stop-color="#32cd32" stop-opacity="1"></stop><stop offset="85.55555555555554%" stop-color="#32cd32" stop-opacity="1"></stop></linearGradient></defs><defs><linearGradient id="grad2_0" x1="0%" y1="100%" x2="56.3%" y2="0%"><stop offset="14.444444444444446%" stop-color="#32cd32" stop-opacity="1"></stop><stop offset="85.55555555555554%" stop-color="#32cd32" stop-opacity="1"></stop></linearGradient></defs><g transform="translate(1280, 720)"><path d="M-216 0C-195.4 -28.9 -174.8 -57.9 -159.3 -92C-143.9 -126.1 -133.7 -165.5 -108 -187.1C-82.3 -208.6 -41.2 -212.3 0 -216L0 0Z" fill="#079907"></path></g><g transform="translate(0, 0)"><path d="M216 0C211.7 40.1 207.4 80.2 187.1 108C166.7 135.8 130.3 151.2 96.5 167.1C62.7 183.1 31.3 199.5 0 216L0 0Z" fill="#079907"></path></g></svg>